<svg style="position: absolute; width: 0; height: 0;" width="0" height="0" version="1.1" xmlns="http://www.w3.org/2000/svg" xmlns:xlink="http://www.w3.org/1999/xlink">
<defs>
<symbol id="icon-rating-full" viewBox="0 0 1024 1024">
<path class="path1" d="M960 384h-342.656l-105.344-320-105.344 320h-342.656l277.632 193.984-106.496 318.016 276.864-197.248 276.864 197.248-106.432-318.016z"></path>
</symbol>
<symbol id="icon-checkmark" viewBox="0 0 1024 1024">
<path class="path1" d="M704 272l-224 256-112-96-64 64 144 208h64l256-384z"></path>
</symbol>
<symbol id="icon-collapse" viewBox="0 0 1024 1024">
<path class="path1" d="M704 704l-224-224-224 224-64-64 288-288 288 288z"></path>
</symbol>
<symbol id="icon-edit" viewBox="0 0 1024 1024">
<path class="path1" d="M640 160l-448 448v224h224l448-448-224-224zM640 256l48 48-297.344 297.344-48-48 297.344-297.344zM384 768l-128-128 64-64 128 128-64 64zM422.656 633.344l297.344-297.344 48 48-297.344 297.344-48-48z"></path>
</symbol>
<symbol id="icon-expand" viewBox="0 0 1024 1024">
<path class="path1" d="M704 384l-224 224-224-224-64 64 288 288 288-288z"></path>
</symbol>
<symbol id="icon-facebook" viewBox="0 0 1024 1024">
<path class="path1" d="M832 64h-640c-70.656 0-128 57.344-128 128v640c0 70.656 57.344 128 128 128h361.92v-355.648h-127.168v-129.664h127.168c0 0 0-60.672 0-118.4 0-87.040 56.256-166.976 186.048-166.976 52.416 0 91.264 4.992 91.264 4.992l-2.944 121.152c0 0-39.68-0.32-83.008-0.32-46.656 0-54.272 21.568-54.272 57.216 0 3.84 0 5.504 0 6.016v96.32h140.992l-6.208 129.728h-134.72v355.584h140.928c70.656 0 128-57.344 128-128v-640c0-70.656-57.344-128-128-128z"></path>
</symbol>
<symbol id="icon-googleplus-alt" viewBox="0 0 1024 1024">
<path class="path1" d="M364.8 448v102.4h166.4c-6.4 38.4-51.2 121.6-166.4 121.6-102.4 0-185.6-83.2-185.6-185.6s83.2-185.6 185.6-185.6c64 0 96 25.6 115.2 38.4l76.8-76.8c-44.8-51.2-115.2-76.8-192-76.8-153.6 0-294.4 134.4-294.4 294.4s134.4 294.4 294.4 294.4c166.4 0 281.6-115.2 281.6-281.6 0-25.6-6.4-44.8-6.4-44.8s-275.2 0-275.2 0zM832 448v-64h-64v64h-64v64h64v64h64v-64h64v-64h-64z"></path>
</symbol>
<symbol id="icon-instagram" viewBox="0 0 1024 1024">
<path class="path1" d="M832 64h-640c-70.656 0-128 57.344-128 128v640c0 70.656 57.344 128 128 128h640c70.656 0 128-57.344 128-128v-640c0-70.656-57.344-128-128-128zM512 320c105.984 0 192 85.952 192 192 0 105.984-86.016 192-192 192-106.048 0-192-86.016-192-192 0-106.048 85.952-192 192-192zM896 832c0 35.392-28.608 64-64 64h-640c-35.328 0-64-28.608-64-64v-384h137.088c-5.376 20.544-9.088 41.728-9.088 64 0 141.376 114.624 256 256 256s256-114.624 256-256c0-22.272-3.776-43.456-9.088-64h137.088v384zM896 256c0 35.328-28.608 64-64 64h-64c-35.392 0-64-28.672-64-64v-64c0-35.328 28.608-64 64-64h64c35.392 0 64 28.672 64 64v64z"></path>
</symbol>
<symbol id="icon-mail" viewBox="0 0 1024 1024">
<path class="path1" d="M128 256v64l384 192 384-192v-64h-768zM128 416v352h768v-352l-384 192-384-192z"></path>
</symbol>
<symbol id="icon-month" viewBox="0 0 1024 1024">
<path class="path1" d="M384 704h64v-64h-64v64zM384 576h64v-64h-64v64zM384 448h64v-64h-64v64zM256 704h64v-64h-64v64zM256 576h64v-64h-64v64zM640 576h64v-64h-64v64zM512 448h64v-64h-64v64zM640 448h64v-64h-64v64zM704 192v-64h-64v64h-320v-64h-64v64h-128v640h704v-640h-128zM768 704c0 35.392-28.608 64-64 64h-448c-35.328 0-64-28.608-64-64v-320c0-35.392 28.672-64 64-64h448c35.392 0 64 28.608 64 64v320zM512 576h64v-64h-64v64zM512 704h64v-64h-64v64z"></path>
</symbol>
<symbol id="icon-next" viewBox="0 0 1024 1024">
<path class="path1" d="M512 297.344l-43.328 43.328 171.328 171.328h-448v64h448l-171.328 171.328 43.328 43.328 246.656-246.656z"></path>
</symbol>
<symbol id="icon-phone" viewBox="0 0 1024 1024">
<path class="path1" d="M640 128h-256c-70.656 0-128 57.344-128 128v512c0 70.656 57.344 128 128 128h256c70.656 0 128-57.344 128-128v-512c0-70.656-57.344-128-128-128zM512 832c-35.328 0-64-28.608-64-64s28.672-64 64-64c35.392 0 64 28.608 64 64s-28.608 64-64 64zM704 640h-384v-384h384v384z"></path>
</symbol>
<symbol id="icon-previous" viewBox="0 0 1024 1024">
<path class="path1" d="M512 297.344l43.328 43.328-171.328 171.328h448v64h-448l171.328 171.328-43.328 43.328-246.656-246.656z"></path>
</symbol>
<symbol id="icon-arrow-circle-left" viewBox="0 0 24 28">
<path class="path1" d="M20 15v-2q0-0.406-0.297-0.703t-0.703-0.297h-7.844l2.953-2.953q0.297-0.297 0.297-0.703t-0.297-0.703l-1.422-1.422q-0.281-0.281-0.703-0.281t-0.703 0.281l-7.078 7.078q-0.281 0.281-0.281 0.703t0.281 0.703l7.078 7.078q0.281 0.281 0.703 0.281t0.703-0.281l1.422-1.422q0.281-0.281 0.281-0.703t-0.281-0.703l-2.953-2.953h7.844q0.406 0 0.703-0.297t0.297-0.703zM24 14q0 3.266-1.609 6.023t-4.367 4.367-6.023 1.609-6.023-1.609-4.367-4.367-1.609-6.023 1.609-6.023 4.367-4.367 6.023-1.609 6.023 1.609 4.367 4.367 1.609 6.023z"></path>
</symbol>
<symbol id="icon-arrow-circle-right" viewBox="0 0 24 28">
<path class="path1" d="M20.078 14q0-0.422-0.281-0.703l-7.078-7.078q-0.281-0.281-0.703-0.281t-0.703 0.281l-1.422 1.422q-0.281 0.281-0.281 0.703t0.281 0.703l2.953 2.953h-7.844q-0.406 0-0.703 0.297t-0.297 0.703v2q0 0.406 0.297 0.703t0.703 0.297h7.844l-2.953 2.953q-0.297 0.297-0.297 0.703t0.297 0.703l1.422 1.422q0.281 0.281 0.703 0.281t0.703-0.281l7.078-7.078q0.281-0.281 0.281-0.703zM24 14q0 3.266-1.609 6.023t-4.367 4.367-6.023 1.609-6.023-1.609-4.367-4.367-1.609-6.023 1.609-6.023 4.367-4.367 6.023-1.609 6.023 1.609 4.367 4.367 1.609 6.023z"></path>
</symbol>
<symbol id="icon-chevron-circle-left" viewBox="0 0 24 28">
<path class="path1" d="M14.203 21.797l1.594-1.594q0.297-0.297 0.297-0.703t-0.297-0.703l-4.797-4.797 4.797-4.797q0.297-0.297 0.297-0.703t-0.297-0.703l-1.594-1.594q-0.297-0.297-0.703-0.297t-0.703 0.297l-7.094 7.094q-0.297 0.297-0.297 0.703t0.297 0.703l7.094 7.094q0.297 0.297 0.703 0.297t0.703-0.297zM24 14q0 3.266-1.609 6.023t-4.367 4.367-6.023 1.609-6.023-1.609-4.367-4.367-1.609-6.023 1.609-6.023 4.367-4.367 6.023-1.609 6.023 1.609 4.367 4.367 1.609 6.023z"></path>
</symbol>
<symbol id="icon-chevron-circle-right" viewBox="0 0 24 28">
<path class="path1" d="M11.203 21.797l7.094-7.094q0.297-0.297 0.297-0.703t-0.297-0.703l-7.094-7.094q-0.297-0.297-0.703-0.297t-0.703 0.297l-1.594 1.594q-0.297 0.297-0.297 0.703t0.297 0.703l4.797 4.797-4.797 4.797q-0.297 0.297-0.297 0.703t0.297 0.703l1.594 1.594q0.297 0.297 0.703 0.297t0.703-0.297zM24 14q0 3.266-1.609 6.023t-4.367 4.367-6.023 1.609-6.023-1.609-4.367-4.367-1.609-6.023 1.609-6.023 4.367-4.367 6.023-1.609 6.023 1.609 4.367 4.367 1.609 6.023z"></path>
</symbol>
<symbol id="icon-search" viewBox="0 0 1024 1024">
<path class="path1" d="M896 832l-247.424-247.424c34.496-47.424 55.424-105.408 55.424-168.576 0-159.040-128.96-288-288-288s-288 128.96-288 288 128.96 288 288 288c63.168 0 121.152-20.928 168.576-55.424l247.424 247.424 64-64zM192 416c0-123.712 100.288-224 224-224 123.776 0 224 100.288 224 224s-100.224 224-224 224c-123.712 0-224-100.288-224-224z"></path>
</symbol>
<symbol id="icon-twitter" viewBox="0 0 1024 1024">
<path class="path1" d="M960 232.128c-32.96 14.656-68.352 24.512-105.536 28.928 37.888-22.72 67.072-58.752 80.768-101.696-35.456 21.056-74.816 36.352-116.608 44.608-33.536-35.712-81.344-58.048-134.272-58.048-101.504 0-183.808 82.304-183.808 183.808 0 14.4 1.664 28.416 4.8 41.856-152.768-7.68-288.256-80.832-378.944-192.064-15.808 27.136-24.896 58.816-24.896 92.48 0 63.744 32.384 120 81.728 152.96-30.080-0.96-58.432-9.216-83.264-22.976 0 0.832 0 1.536 0 2.368 0 89.088 63.296 163.328 147.456 180.224-15.424 4.16-31.616 6.4-48.384 6.4-11.904 0-23.36-1.28-34.624-3.264 23.424 73.088 91.328 126.144 171.712 127.552-62.848 49.344-142.208 78.72-228.224 78.72-14.848 0-29.504-0.896-43.904-2.624 81.344 52.224 177.92 82.624 281.728 82.624 338.176 0 523.136-280.128 523.136-523.008 0-7.936-0.256-15.872-0.64-23.744 35.904-25.92 67.136-58.24 91.776-95.104z"></path>
</symbol>
<symbol id="icon-video" viewBox="0 0 1024 1024">
<path class="path1" d="M256 192v640l576-320z"></path>
</symbol>
<symbol id="icon-uparrow" viewBox="0 0 1024 1024">
<path class="path1" d="M1024 1024l-480-479.936-480 479.936z"></path>
</symbol>
<symbol id="icon-downarrow" viewBox="0 0 1024 1024">
<path class="path1" d="M64 0l480 480 480-480z"></path>
</symbol>
<symbol id="icon-info" viewBox="0 0 1024 1024">
<path class="path1" d="M512 128c-212.096 0-384 171.968-384 384s171.904 384 384 384c212.032 0 384-171.968 384-384s-171.968-384-384-384zM512 256c35.328 0 64 28.672 64 64s-28.672 64-64 64c-35.392 0-64-28.672-64-64s28.608-64 64-64zM640 768h-256v-64h80v-192h-64.064v-64h160.064v256h80v64z"></path>
</symbol>
<symbol id="icon-location" viewBox="0 0 1024 1024">
<path class="path1" d="M480 128c-159.040 0-288 128.96-288 288 0 79.616 32.32 151.68 84.544 203.84l203.456 203.52 203.456-203.52c52.224-52.16 84.544-124.224 84.544-203.84 0-159.040-128.96-288-288-288zM480 576c-88.384 0-160-71.68-160-160s71.616-160 160-160c88.32 0 160 71.68 160 160s-71.68 160-160 160z"></path>
</symbol>
<symbol id="icon-feed2" viewBox="0 0 32 32">
<path class="path1" d="M4 12v4c6.618 0 12 5.382 12 12h4c0-8.836-7.164-16-16-16zM4 4v4c11.028 0 20 8.972 20 20h4c0-13.254-10.746-24-24-24zM7 22c-1.658 0-3 1.344-3 3s1.342 3 3 3 3-1.344 3-3-1.342-3-3-3z"></path>
</symbol>
<symbol id="icon-flickr" viewBox="0 0 32 32">
<path class="path1" d="M23 9.5c-3.592 0-6.5 2.91-6.5 6.5s2.908 6.5 6.5 6.5 6.5-2.91 6.5-6.5-2.908-6.5-6.5-6.5zM9 9.5c-3.59 0-6.5 2.91-6.5 6.5s2.91 6.5 6.5 6.5 6.5-2.91 6.5-6.5c0-3.59-2.91-6.5-6.5-6.5z"></path>
</symbol>
<symbol id="icon-foursquare" viewBox="0 0 32 32">
<path class="path1" d="M23.090 4c0 0-11.036 0-12.802 0s-2.286 1.328-2.286 2.166 0 20.338 0 20.338c0 0.942 0.506 1.292 0.792 1.406 0.286 0.116 1.070 0.212 1.542-0.33 0 0 6.042-7.012 6.146-7.116 0.158-0.158 0.158-0.158 0.314-0.158h3.912c1.642 0 1.906-1.172 2.078-1.862 0.094-0.382 0.83-4.114 1.47-7.346l0.81-4.042c0.408-1.984-0.096-3.056-1.976-3.056zM21.796 10.264c-0.064 0.302-0.446 0.622-0.798 0.622s-4.988 0-4.988 0c-0.56 0-0.962 0.382-0.962 0.944v0.61c0 0.56 0.404 0.958 0.966 0.958 0 0 3.836 0 4.234 0s0.786 0.434 0.7 0.858c-0.086 0.424-0.488 2.522-0.538 2.754-0.048 0.232-0.314 0.628-0.786 0.628-0.396 0-3.456 0-3.456 0-0.628 0-0.82 0.082-1.24 0.604-0.42 0.524-4.206 5.068-4.206 5.068-0.038 0.042-0.076 0.032-0.076-0.018v-15.87c0-0.358 0.312-0.778 0.778-0.778 0 0 9.874 0 10.274 0 0.378 0 0.732 0.356 0.634 0.82l-0.536 2.8z"></path>
</symbol>
<symbol id="icon-github" viewBox="0 0 32 32">
<path class="path1" d="M16 0c-8.836 0-16 7.164-16 16 0 7.070 4.584 13.066 10.942 15.182 0.8 0.144 1.092-0.348 1.092-0.774 0-0.378-0.014-1.386-0.022-2.718-4.452 0.964-5.39-2.144-5.39-2.144-0.728-1.852-1.776-2.344-1.776-2.344-1.454-0.992 0.11-0.972 0.11-0.972 1.606 0.114 2.452 1.648 2.452 1.648 1.426 2.446 3.746 1.742 4.656 1.332 0.146-1.036 0.558-1.738 1.016-2.14-3.552-0.402-7.288-1.778-7.288-7.908 0-1.746 0.624-3.174 1.648-4.292-0.166-0.406-0.716-2.032 0.154-4.234 0 0 1.344-0.43 4.4 1.64 1.278-0.356 2.646-0.532 4.006-0.538 1.36 0.006 2.728 0.182 4.006 0.538 3.054-2.070 4.396-1.64 4.396-1.64 0.874 2.202 0.324 3.83 0.16 4.234 1.024 1.118 1.642 2.546 1.642 4.292 0 6.146-3.74 7.5-7.304 7.896 0.574 0.492 1.086 1.468 1.086 2.964 0 2.136-0.020 3.864-0.020 4.386 0 0.43 0.288 0.926 1.1 0.77 6.354-2.12 10.934-8.112 10.934-15.178 0-8.836-7.164-16-16-16z"></path>
</symbol>
<symbol id="icon-googleplus" viewBox="0 0 32 32">
<path class="path1" d="M11.4 14v3.2h5.2c-0.2 1.2-1.6 3.8-5.2 3.8-3.2 0-5.8-2.6-5.8-5.8s2.6-5.8 5.8-5.8c2 0 3 0.8 3.6 1.2l2.4-2.4c-1.4-1.6-3.6-2.4-6-2.4-4.8 0-9.2 4.2-9.2 9.2s4.2 9.2 9.2 9.2c5.2 0 8.8-3.6 8.8-8.8 0-0.8-0.2-1.4-0.2-1.4s-8.6 0-8.6 0zM26 14v-2h-2v2h-2v2h2v2h2v-2h2v-2h-2z"></path>
</symbol>
<symbol id="icon-linkedin" viewBox="0 0 32 32">
<path class="path1" d="M9.448 28h-5.144v-15.48h5.144v15.48zM6.876 10.408h-0.032c-1.726 0-2.844-1.19-2.844-2.674 0-1.518 1.15-2.674 2.912-2.674 1.758 0 2.842 1.158 2.876 2.674 0 1.484-1.118 2.674-2.912 2.674zM28 28h-5.144v-8.282c0-2.080-0.74-3.5-2.604-3.5-1.424 0-2.27 0.956-2.642 1.88-0.134 0.332-0.168 0.796-0.168 1.258v8.644h-5.146c0 0 0.068-14.028 0-15.48h5.146v2.194c0.684-1.054 1.906-2.556 4.632-2.556 3.386 0 5.926 2.212 5.926 6.966v8.876z"></path>
</symbol>
<symbol id="icon-linkedin-alt" viewBox="0 0 32 32">
<path class="path1" d="M26 2h-20c-2.208 0-4 1.792-4 4v20c0 2.208 1.792 4 4 4h20c2.208 0 4-1.792 4-4v-20c0-2.208-1.792-4-4-4zM10.362 26h-4.118v-12.39h4.118v12.39zM8.302 11.918h-0.026c-1.382 0-2.276-0.952-2.276-2.14 0-1.214 0.92-2.14 2.33-2.14 1.408 0 2.276 0.926 2.302 2.14 0 1.188-0.894 2.14-2.33 2.14zM25.21 26h-4.118v-6.628c0-1.664-0.594-2.8-2.086-2.8-1.138 0-1.816 0.766-2.114 1.506-0.106 0.262-0.134 0.632-0.134 1.002v6.92h-4.118c0 0 0.054-11.228 0-12.39h4.118v1.756c0.546-0.844 1.526-2.046 3.71-2.046 2.71 0 4.742 1.772 4.742 5.576v7.104z"></path>
</symbol>
<symbol id="icon-path" viewBox="0 0 32 32">
<path class="path1" d="M22.47 3.364c0 0-11.39-4.578-18.122 3.042-5.184 7.080 0.116 13.618 0.116 13.618l3.52-3.132c0 0-2.63-3.134-0.58-6.616 2.708-4.372 8.164-4.024 8.164-4.024s8.7-0.040 8.546 7.388c-0.968 6.692-8.162 4.528-8.162 4.528v-8.398h-4.87v14.78c-0.694 1.942-2.446 1.18-3.752-0.156v4.372c0 0 2.63 1.972 5.494 0.93 2.862-1.046 3.17-3.442 3.17-3.442v-4.336c0 0 8.084 3.21 12.26-5.454 3.020-9.516-5.784-13.1-5.784-13.1z"></path>
</symbol>
<symbol id="icon-pinterest" viewBox="0 0 32 32">
<path class="path1" d="M16.768 0c-9.372 0-14.096 6.716-14.096 12.32 0 3.392 1.284 6.412 4.038 7.532 0.452 0.186 0.856 0.010 0.988-0.49 0.090-0.348 0.308-1.222 0.402-1.582 0.13-0.496 0.082-0.67-0.286-1.104-0.792-0.936-1.3-2.146-1.3-3.866 0-4.984 3.728-9.446 9.708-9.446 5.294 0 8.206 3.236 8.206 7.558 0 5.686-2.514 10.484-6.252 10.484-2.062 0-3.606-1.706-3.112-3.794 0.59-2.5 1.742-5.198 1.742-7 0-1.614-0.866-2.96-2.66-2.96-2.108 0-3.804 2.184-3.804 5.106 0 1.862 0.63 3.122 0.63 3.122s-2.158 9.146-2.536 10.746c-0.354 1.498-0.4 3.15-0.344 4.53l2.328 0.844c0.748-1.182 1.566-2.702 1.986-4.222 0.244-0.878 1.388-5.424 1.388-5.424 0.686 1.308 2.688 2.46 4.818 2.46 6.338 0 10.64-5.782 10.64-13.518 0-5.848-4.958-11.296-12.484-11.296z"></path>
</symbol>
<symbol id="icon-pinterest-alt" viewBox="0 0 32 32">
<path class="path1" d="M16 0c-8.836 0-16 7.164-16 16 0 6.55 3.94 12.182 9.578 14.656-0.044-1.12-0.008-2.458 0.28-3.674 0.306-1.298 2.058-8.718 2.058-8.718s-0.512-1.022-0.512-2.532c0-2.372 1.376-4.142 3.086-4.142 1.456 0 2.158 1.092 2.158 2.402 0 1.462-0.934 3.652-1.414 5.678-0.4 1.696 0.852 3.080 2.526 3.080 3.034 0 5.072-3.892 5.072-8.506 0-3.506-2.362-6.132-6.658-6.132-4.852 0-7.876 3.62-7.876 7.664 0 1.394 0.412 2.376 1.054 3.136 0.296 0.352 0.338 0.492 0.232 0.894-0.078 0.292-0.254 1.002-0.328 1.284-0.106 0.406-0.434 0.548-0.8 0.398-2.236-0.91-3.276-3.36-3.276-6.112 0-4.546 3.834-9.996 11.436-9.996 6.108 0 10.128 4.42 10.128 9.166 0 6.276-3.49 10.966-8.632 10.966-1.728 0-3.352-0.934-3.91-1.996 0 0-0.928 3.688-1.126 4.4-0.34 1.234-1.004 2.466-1.61 3.426 1.44 0.428 2.958 0.658 4.534 0.658 8.838 0 16-7.162 16-16 0-8.836-7.162-16-16-16z"></path>
</symbol>
<symbol id="icon-reddit" viewBox="0 0 32 32">
<path class="path1" d="M19.124 19.876c-0.594 0.594-1.61 0.876-3.14 0.876-1.5 0-2.516-0.282-3.11-0.876-0.312-0.312-0.812-0.312-1.124 0s-0.312 0.828 0 1.14c0.89 0.89 2.282 1.344 4.266 1.344 1.954 0 3.344-0.454 4.234-1.344 0.312-0.312 0.312-0.828 0-1.14s-0.812-0.314-1.126 0zM13.984 16.656c0-0.968-0.782-1.75-1.75-1.75-0.954 0-1.734 0.782-1.734 1.75 0 0.954 0.782 1.75 1.734 1.75 0.97 0 1.75-0.796 1.75-1.75zM19.766 14.906c-0.968 0-1.75 0.782-1.75 1.75 0 0.954 0.782 1.75 1.75 1.75s1.75-0.796 1.75-1.75c0-0.968-0.782-1.75-1.75-1.75zM26.532 14.984c-0.5-0.796-1.204-1.532-2.046-2.156 0.282-0.36 0.688-0.61 1.188-0.61 0.844 0 1.532 0.688 1.532 1.532-0.002 0.516-0.284 0.954-0.674 1.234zM15.954 24.172c-5.454 0-9.89-2.766-9.89-6.172s4.436-6.172 9.89-6.172c5.438 0 9.876 2.766 9.876 6.188-0.002 3.39-4.44 6.156-9.876 6.156zM4.796 13.75c0-0.844 0.688-1.532 1.546-1.532 0.468 0 0.86 0.218 1.14 0.562-0.86 0.624-1.562 1.344-2.062 2.14-0.374-0.264-0.624-0.686-0.624-1.17zM25 3.796c0.656 0 1.204 0.546 1.204 1.204s-0.548 1.204-1.204 1.204-1.204-0.548-1.204-1.204 0.548-1.204 1.204-1.204zM28.796 13.75c0-1.734-1.406-3.14-3.124-3.14-1.062 0-1.984 0.532-2.546 1.344-1.736-0.954-3.876-1.564-6.204-1.688l1.204-6.032 4.094 0.938c0.094 1.468 1.296 2.624 2.782 2.624 1.546 0 2.796-1.25 2.796-2.796s-1.252-2.796-2.798-2.796c-1.032 0-1.938 0.578-2.422 1.406l-4.89-1.126c-0.204-0.046-0.422-0.016-0.61 0.11-0.188 0.11-0.312 0.296-0.36 0.516l-1.438 7.14c-2.42 0.094-4.64 0.704-6.436 1.656-0.562-0.782-1.468-1.296-2.5-1.296-1.734 0-3.14 1.406-3.14 3.14 0 1.124 0.61 2.094 1.516 2.64-0.158 0.532-0.252 1.064-0.252 1.626 0 4.282 5.156 7.766 11.484 7.766s11.47-3.486 11.47-7.782c0-0.532-0.078-1.046-0.218-1.546 0.936-0.548 1.592-1.532 1.592-2.704z"></path>
</symbol>
<symbol id="icon-skype" viewBox="0 0 32 32">
<path class="path1" d="M29.012 18.968c0.202-0.906 0.306-1.854 0.306-2.824 0-7.27-5.894-13.166-13.166-13.166-0.77 0-1.522 0.072-2.248 0.194-1.18-0.744-2.57-1.172-4.066-1.172-4.216 0-7.636 3.42-7.636 7.636 0 1.408 0.384 2.73 1.048 3.858-0.174 0.858-0.27 1.74-0.27 2.65 0 7.27 5.896 13.164 13.166 13.164 0.82 0 1.626-0.078 2.414-0.216 1.074 0.574 2.298 0.908 3.604 0.908 4.214 0 7.634-3.422 7.634-7.636 0.006-1.226-0.28-2.37-0.786-3.396zM22.908 22.436c-0.616 0.866-1.504 1.546-2.682 2.030-1.15 0.48-2.536 0.722-4.11 0.722-1.888 0-3.474-0.332-4.714-0.986-0.882-0.48-1.62-1.128-2.168-1.924-0.562-0.806-0.842-1.614-0.842-2.378 0-0.484 0.184-0.902 0.552-1.244 0.36-0.344 0.824-0.506 1.372-0.506 0.456 0 0.84 0.132 1.164 0.402 0.308 0.254 0.56 0.636 0.77 1.126 0.238 0.536 0.49 0.986 0.76 1.34 0.254 0.34 0.628 0.63 1.102 0.848 0.472 0.226 1.12 0.338 1.916 0.338 1.084 0 1.978-0.232 2.652-0.686 0.654-0.446 0.97-0.984 0.97-1.646 0-0.518-0.164-0.928-0.51-1.252-0.354-0.334-0.83-0.594-1.406-0.77-0.602-0.184-1.406-0.386-2.41-0.594-1.366-0.292-2.53-0.638-3.448-1.032-0.944-0.404-1.708-0.962-2.256-1.652-0.57-0.71-0.848-1.594-0.848-2.644 0-0.996 0.296-1.89 0.89-2.66 0.588-0.77 1.454-1.364 2.556-1.776 1.092-0.404 2.386-0.61 3.866-0.61 1.172 0 2.202 0.138 3.074 0.4 0.862 0.272 1.596 0.64 2.172 1.086 0.58 0.456 1.010 0.936 1.28 1.442 0.252 0.506 0.394 1.006 0.394 1.496 0 0.474-0.182 0.902-0.542 1.268-0.36 0.376-0.812 0.57-1.358 0.57-0.49 0-0.868-0.122-1.124-0.35-0.246-0.218-0.502-0.56-0.792-1.050-0.332-0.62-0.724-1.12-1.18-1.458-0.44-0.334-1.182-0.51-2.196-0.51-0.944 0-1.714 0.194-2.282 0.562-0.552 0.36-0.816 0.77-0.816 1.258 0 0.296 0.088 0.552 0.262 0.77 0.186 0.226 0.446 0.428 0.788 0.594 0.35 0.174 0.7 0.316 1.060 0.412 0.366 0.106 0.98 0.254 1.82 0.448 1.066 0.226 2.048 0.48 2.914 0.76 0.874 0.28 1.634 0.63 2.246 1.032 0.632 0.412 1.13 0.936 1.488 1.566 0.358 0.632 0.534 1.408 0.534 2.318-0.002 1.086-0.31 2.072-0.918 2.94z"></path>
</symbol>
<symbol id="icon-spotify" viewBox="0 0 32 32">
<path class="path1" d="M16 2c-7.8 0-14 6.2-14 14s6.2 14 14 14c7.8 0 14-6.2 14-14s-6.2-14-14-14zM21.6 22.6c-0.2 0-0.4 0-0.6-0.2-2-1.2-4.6-1.8-7.2-1.8-1.4 0-3 0.2-4.4 0.4-0.2 0-0.6 0.2-0.6 0.2-0.6 0-0.8-0.4-0.8-0.8 0-0.6 0.4-0.8 0.8-1 1.6-0.4 3.2-0.8 5-0.8 3 0 5.8 0.8 8.2 2.2 0.4 0.2 0.6 0.4 0.6 1 0 0.4-0.4 0.8-1 0.8zM23.2 19c-0.4 0-0.4-0.2-0.8-0.2-2.2-1.4-5.4-2.2-8.8-2.2-1.8 0-3.4 0.2-4.6 0.6-0.2 0-0.4 0.2-0.6 0.2-0.6-0.2-1.2-0.8-1.2-1.4s0.2-1 0.8-1.2c1.6-0.4 3.2-0.8 5.6-0.8 3.6 0 7.2 1 10 2.6 0.4 0.2 0.6 0.6 0.6 1.2s-0.4 1.2-1 1.2zM25 14.6c-0.2 0-0.4 0-0.8-0.2-2.6-1.6-6.4-2.4-10.2-2.4-2 0-3.8 0.2-5.6 0.6-0.2 0-0.4 0.2-0.8 0.2-0.8 0-1.4-0.6-1.4-1.4s0.4-1.2 1-1.4c2-0.6 4.2-0.8 6.6-0.8 4.2 0 8.4 0.8 11.6 2.8 0.4 0.2 0.8 0.6 0.8 1.2 0 0.8-0.6 1.4-1.2 1.4z"></path>
</symbol>
<symbol id="icon-twitch" viewBox="0 0 32 32">
<path class="path1" d="M16 9.306h-2.434v7.302h2.434v-7.302zM22 9.306h-2.434v7.302h2.434v-7.302zM5.050 2l-3.050 4.87v19.13h8v4h3.57l3.65-4h5.476l7.304-6.956v-17.044h-24.95zM27.566 17.826l-4.264 4.26h-6.69l-3.648 3.302v-3.302h-5.484v-17.652h20.086v13.392z"></path>
</symbol>
<symbol id="icon-vimeo" viewBox="0 0 32 32">
<path class="path1" d="M25.918 4.002c-3.878-0.124-6.51 2.044-7.886 6.512 0.71-0.3 1.402-0.456 2.074-0.456 1.424 0 2.050 0.794 1.884 2.378-0.084 0.958-0.712 2.356-1.884 4.19-1.176 1.834-2.056 2.752-2.642 2.752-0.754 0-1.446-1.412-2.074-4.24-0.212-0.83-0.588-2.95-1.132-6.36-0.504-3.158-1.844-4.636-4.024-4.428-0.922 0.084-2.306 0.914-4.148 2.492-1.342 1.204-2.704 2.408-4.086 3.612l1.318 1.682c1.254-0.872 1.988-1.306 2.198-1.306 0.96 0 1.86 1.494 2.698 4.478 0.752 2.738 1.506 5.474 2.26 8.212 1.126 2.986 2.508 4.48 4.14 4.48 2.634 0 5.856-2.454 9.662-7.356 3.682-4.696 5.586-8.392 5.71-11.094 0.166-3.614-1.19-5.464-4.068-5.548z"></path>
</symbol>
<symbol id="icon-wordpress" viewBox="0 0 32 32">
<path class="path1" d="M16 2c-7.72 0-14 6.28-14 14 0 7.718 6.28 14 14 14 7.718 0 14-6.282 14-14 0-7.72-6.282-14-14-14zM3.414 16c0-1.826 0.392-3.558 1.090-5.124l6.004 16.452c-4.2-2.040-7.094-6.346-7.094-11.328zM16 28.586c-1.236 0-2.428-0.18-3.556-0.512l3.78-10.974 3.868 10.598c0.026 0.064 0.056 0.122 0.090 0.176-1.31 0.46-2.716 0.712-4.182 0.712zM17.734 10.098c0.76-0.040 1.442-0.12 1.442-0.12 0.678-0.080 0.598-1.078-0.080-1.038 0 0-2.040 0.16-3.356 0.16-1.238 0-3.316-0.16-3.316-0.16-0.678-0.040-0.756 0.998-0.080 1.038 0 0 0.642 0.080 1.32 0.12l1.96 5.374-2.754 8.26-4.58-13.634c0.756-0.040 1.44-0.12 1.44-0.12 0.676-0.080 0.596-1.078-0.082-1.038 0 0-2.038 0.16-3.354 0.16-0.236 0-0.514-0.004-0.81-0.014 2.25-3.418 6.118-5.672 10.516-5.672 3.278 0 6.26 1.252 8.5 3.304-0.054-0.004-0.108-0.010-0.164-0.010-1.234 0-2.112 1.076-2.112 2.234 0 1.038 0.598 1.916 1.234 2.954 0.478 0.836 1.038 1.914 1.038 3.47 0 1.078-0.412 2.328-0.958 4.070l-1.256 4.196-4.548-13.534zM27.044 9.96c0.982 1.792 1.542 3.85 1.542 6.040 0 4.642-2.516 8.698-6.258 10.878l3.846-11.116c0.716-1.794 0.958-3.23 0.958-4.508-0.002-0.462-0.032-0.892-0.088-1.294z"></path>
</symbol>
<symbol id="icon-youtube" viewBox="0 0 32 32">
<path class="path1" d="M24 6h-16c-3.314 0-6 2.686-6 6v8c0 3.314 2.686 6 6 6h16c3.312 0 6-2.686 6-6v-8c0-3.314-2.688-6-6-6zM12 22v-12l10 6-10 6z"></path>
</symbol>
<symbol id="icon-cloud" viewBox="0 0 32 32">
<path class="path1" d="M26 16h-0.368c0.224-0.628 0.368-1.294 0.368-2 0-3.314-2.688-6-6-6-2.416 0-4.488 1.438-5.438 3.498-0.906-0.922-2.166-1.498-3.562-1.498-2.762 0-5 2.238-5 5 0 0.344 0.034 0.674 0.102 1h-0.102c-2.208 0-4 1.792-4 4s1.792 4 4 4h20c2.208 0 4-1.792 4-4s-1.792-4-4-4z"></path>
</symbol>
<symbol id="icon-codepen" viewBox="0 0 32 32">
<path class="path1" d="M27.994 12.22c-0.002-0.016-0.006-0.030-0.008-0.044-0.006-0.030-0.010-0.058-0.018-0.086-0.004-0.018-0.012-0.034-0.016-0.050-0.010-0.024-0.018-0.048-0.028-0.074-0.008-0.018-0.016-0.034-0.024-0.050-0.010-0.024-0.022-0.044-0.036-0.068-0.008-0.016-0.020-0.032-0.030-0.046-0.014-0.022-0.028-0.042-0.042-0.062-0.012-0.016-0.024-0.030-0.036-0.044-0.018-0.020-0.034-0.038-0.052-0.054-0.012-0.014-0.026-0.028-0.042-0.042-0.018-0.018-0.038-0.034-0.058-0.048-0.014-0.012-0.030-0.024-0.044-0.036-0.006-0.004-0.012-0.010-0.018-0.014l-10.97-7.3c-0.346-0.23-0.798-0.23-1.144 0l-10.972 7.296c-0.006 0.004-0.012 0.010-0.018 0.014l-0.046 0.034c-0.020 0.016-0.040 0.032-0.058 0.048-0.014 0.016-0.028 0.030-0.042 0.042-0.018 0.018-0.034 0.036-0.050 0.056-0.014 0.016-0.026 0.028-0.036 0.044-0.014 0.020-0.030 0.042-0.042 0.062-0.010 0.016-0.020 0.032-0.030 0.046-0.014 0.026-0.026 0.046-0.036 0.070-0.008 0.018-0.016 0.034-0.024 0.050-0.010 0.026-0.018 0.052-0.026 0.076-0.006 0.016-0.012 0.032-0.016 0.050-0.008 0.028-0.012 0.056-0.018 0.086-0.002 0.016-0.006 0.030-0.008 0.044-0.006 0.046-0.010 0.090-0.010 0.136v7.296c0 0.044 0.004 0.090 0.010 0.134 0.002 0.014 0.006 0.030 0.008 0.046 0.006 0.028 0.010 0.056 0.018 0.086 0.004 0.018 0.010 0.034 0.016 0.048 0.008 0.026 0.016 0.050 0.026 0.076 0.008 0.018 0.016 0.034 0.024 0.048 0.010 0.024 0.022 0.046 0.036 0.070 0.008 0.016 0.018 0.032 0.030 0.046 0.014 0.022 0.028 0.042 0.042 0.062 0.012 0.016 0.024 0.030 0.036 0.044 0.016 0.018 0.034 0.038 0.050 0.054 0.014 0.014 0.028 0.028 0.042 0.042 0.018 0.016 0.038 0.034 0.058 0.048l0.046 0.036c0.006 0.004 0.012 0.008 0.016 0.012l10.972 7.298c0.176 0.12 0.374 0.176 0.574 0.176s0.398-0.056 0.572-0.172l10.99-7.31c0.016-0.012 0.032-0.024 0.044-0.036 0.022-0.016 0.042-0.034 0.058-0.048s0.030-0.028 0.042-0.042c0.020-0.018 0.036-0.038 0.052-0.054 0.012-0.016 0.024-0.030 0.036-0.044 0.016-0.022 0.030-0.042 0.042-0.062 0.010-0.016 0.022-0.032 0.030-0.046 0.014-0.024 0.026-0.046 0.036-0.070 0.008-0.016 0.016-0.032 0.024-0.048 0.010-0.026 0.018-0.050 0.028-0.076 0.004-0.016 0.012-0.032 0.016-0.048 0.008-0.030 0.012-0.058 0.018-0.086 0.002-0.016 0.006-0.032 0.008-0.044 0.004-0.050 0.008-0.094 0.008-0.14v-7.296c0-0.046-0.004-0.090-0.010-0.136zM17.032 6.98l8.084 5.376-3.612 2.41-4.472-2.984v-4.802zM14.968 6.98v4.8l-4.472 2.986-3.61-2.41 8.082-5.376zM6.060 14.282l2.58 1.722-2.58 1.722v-3.444zM14.968 25.028l-8.082-5.378 3.61-2.408 4.472 2.984v4.802zM16 18.44l-3.648-2.436 3.648-2.436 3.648 2.436-3.648 2.436zM17.032 25.028v-4.8l4.472-2.984 3.612 2.408-8.084 5.376zM25.942 17.726l-2.582-1.722 2.582-1.722v3.444z"></path>
</symbol>
<symbol id="icon-digg" viewBox="0 0 32 32">
<path class="path1" d="M26 16c0-1.104-0.896-2-2-2h-6.5c0 0 0.5-2 0.5-5 0-2.75-2-5-3-5s-1 2-1 2c0 6-3 10-5 10h-3v10c0 0 1 0 2 0 2 0 3 2 6 2 0.508 0 7 0 7 0 1.104 0 2-0.896 2-2s-0.896-2-2-2h1c1.104 0 2-0.896 2-2 0-0.416-0.126-0.798-0.342-1.12 0.78-0.274 1.342-1.008 1.342-1.88 0-0.416-0.126-0.798-0.342-1.12 0.78-0.272 1.342-1.006 1.342-1.88z"></path>
</symbol>
<symbol id="icon-dribbble" viewBox="0 0 32 32">
<path class="path1" d="M16 30c-3.25 0-6.25-1-8.5-3 2.25-4.25 6.5-7.5 11-9 2.25 5 3 8.5 3.25 10.75-1.75 0.75-3.75 1.25-5.75 1.25zM24 27.5c-1-5.25-2.75-9.5-3-10 3.25-0.5 6-0.5 9 0-0.5 4-2.75 7.75-6 10zM2 15c5.25 0.5 8.75 0 14.5-1.75 0.5 1 1 2 1.25 2.75-4.5 1.5-9.5 4.75-12.25 9.25-2.25-2.5-3.5-5.75-3.5-9.25 0-0.25 0-0.5 0-1zM27.5 8c1.5 2 2.25 4.5 2.5 7.25-2.25-0.5-6.5-0.75-9.75 0-0.5-1-0.75-1.75-1.5-2.75 3-1.5 6.25-2.5 8.75-4.5zM10.5 3c2 2.75 3.5 5.25 5 8.25-2.25 0.75-8.5 2-13 1.5 1-4.5 4-8 8-9.75zM16 2c4 0 7.5 1.75 10 4.25-2.25 2-6.25 3.25-8.25 4-1.75-3-2.75-4.75-4.75-8 1 0 2-0.25 3-0.25zM16 0c-8.75 0-16 7.25-16 16s7.25 16 16 16 16-7.25 16-16-7.25-16-16-16z"></path>
</symbol>
<symbol id="icon-dropbox" viewBox="0 0 32 32">
<path class="path1" d="M10.236 2.976l-8.236 5.38 5.696 4.56 8.304-5.128z"></path>
<path class="path2" d="M2 17.476l8.236 5.38 5.764-4.814-8.304-5.126z"></path>
<path class="path3" d="M16 18.042l5.762 4.814 8.238-5.38-5.696-4.56z"></path>
<path class="path4" d="M30 8.356l-8.238-5.38-5.762 4.812 8.304 5.128z"></path>
<path class="path5" d="M16.016 19.080l-5.78 4.796-2.474-1.614v1.808l8.254 4.954 8.256-4.954v-1.808l-2.476 1.614z"></path>
</symbol>
<symbol id="icon-pocket" viewBox="0 0 32 32">
<path class="path1" d="M24 4h-16c-2.208 0-4 1.792-4 4v6c0 6.626 5.374 12 12 12s12-5.374 12-12v-6c0-2.208-1.792-4-4-4zM23.414 13.414l-5.656 5.656-0.066-0.066c-0.35 0.584-0.962 0.996-1.692 0.996s-1.342-0.412-1.692-0.996l-0.066 0.066-5.656-5.656c-0.782-0.782-0.782-2.048 0-2.828 0.78-0.782 2.046-0.782 2.828 0l4.586 4.586 4.586-4.586c0.782-0.782 2.046-0.782 2.828 0 0.782 0.78 0.782 2.046 0 2.828z"></path>
</symbol>
<symbol id="icon-polldaddy" viewBox="0 0 32 32">
<path class="path1" d="M16 2c-7.718 0-14 6.282-14 14 0 7.72 6.282 14 14 14 7.72 0 14-6.28 14-14 0-7.718-6.28-14-14-14zM17.388 4.352c3.306 0.118 6.52 1.752 8.676 4.39 0.396 0.468 0.758 0.97 1.084 1.494-1.998-2.508-5.078-4.116-8.532-4.116-3.3 0-6.254 1.466-8.254 3.784-0.008 0.004-0.014 0.014-0.022 0.020-0.072 0.074-0.142 0.148-0.214 0.222-0.014 0.016-0.028 0.030-0.044 0.046-1.416 1.534-2.286 3.582-2.286 5.83 0 4.742 3.858 8.6 8.6 8.6 0.798 0 1.572-0.114 2.308-0.318-2.588 1.174-5.784 1.046-8.296-0.454-2.578-1.524-4.44-4.356-4.806-7.438-0.412-3.086 0.676-6.366 2.964-8.62 2.246-2.292 5.522-3.604 8.822-3.44zM22.11 16.278c-0.068-2.834-2.222-5.444-4.962-5.844-2.698-0.48-5.484 1.2-6.232 3.726-0.38 1.236-0.266 2.586 0.28 3.714 0.546 1.12 1.494 2.032 2.652 2.462 2.33 0.916 5.082-0.378 5.842-2.608 0.83-2.212-0.554-4.792-2.716-5.286-2.128-0.57-4.426 1.060-4.486 3.14-0.072 1.002 0.354 1.99 1.054 2.63 0.702 0.666 1.722 0.934 2.62 0.74 0.904-0.178 1.68-0.78 2.056-1.588 0.378-0.806 0.306-1.758-0.122-2.474-0.416-0.718-1.202-1.208-2-1.234-0.8-0.040-1.568 0.344-2.012 0.95-0.456 0.61-0.532 1.436-0.252 2.084 0.006 0.016 0.014 0.030 0.022 0.042 0.27 0.888 1.084 1.54 2.054 1.564-0.46 0.054-0.944-0.026-1.358-0.256-0.652-0.342-1.132-1.046-1.25-1.806-0.116-0.762 0.126-1.592 0.698-2.154 0.558-0.578 1.384-0.912 2.212-0.848 0.83 0.056 1.622 0.49 2.124 1.202 0.51 0.694 0.714 1.618 0.536 2.482-0.162 0.868-0.74 1.644-1.53 2.12-0.78 0.476-1.77 0.636-2.68 0.4-0.91-0.226-1.716-0.848-2.218-1.688-0.502-0.83-0.684-1.87-0.476-2.84 0.2-0.98 0.802-1.85 1.646-2.454 1.67-1.236 4.278-1.052 5.748 0.576 1.548 1.54 1.858 4.238 0.568 6.12-1.228 1.926-3.836 2.92-6.124 2.232-2.294-0.628-4.078-2.91-4.244-5.394-0.098-1.238 0.182-2.516 0.816-3.608 0.626-1.090 1.62-2.006 2.764-2.608 2.296-1.232 5.342-1.040 7.488 0.594 1.752 1.294 2.916 3.388 3.13 5.612 0 0.016 0.002 0.030 0.002 0.042 0 4.060-3.302 7.364-7.364 7.364-0.962 0-1.882-0.188-2.726-0.526 1.212 0.29 2.488 0.246 3.658-0.11 1.408-0.426 2.652-1.298 3.52-2.452 0.866-1.16 1.33-2.606 1.262-4.018zM16 28.758c-7.034 0-12.756-5.722-12.756-12.758 0-6.704 5.198-12.212 11.776-12.714-0.186 0.022-0.372 0.050-0.556 0.084-3.702 0.634-7.024 2.948-8.848 6.172-1.832 3.222-1.948 7.266-0.42 10.538 1.478 3.276 4.554 5.818 8.086 6.374 3.496 0.616 7.186-0.676 9.502-3.222 2.406-2.516 3.176-6.34 2.080-9.514-0.816-2.534-2.766-4.664-5.18-5.664 4.784 0.832 8.644 4.51 8.644 9.494 0 1.406-0.338 2.828-0.92 4.152-2.096 4.178-6.42 7.058-11.408 7.058z"></path>
</symbol>
<symbol id="icon-stumbleupon" viewBox="0 0 32 32">
<path class="path1" d="M17.27 12.742l1.64 0.75 2.444-0.716v-1.666c-0.086-2.836-2.446-5.11-5.354-5.11-2.898 0-5.25 2.258-5.354 5.078v7.612c0 0.688-0.568 1.246-1.27 1.246s-1.27-0.56-1.27-1.246v-3.228h-4.106c0 0 0 3.232 0 3.268 0 2.912 2.402 5.27 5.366 5.27 2.936 0 5.318-2.316 5.358-5.194l0.006-7.516c0-0.69 0.57-1.248 1.27-1.248s1.27 0.558 1.27 1.248v1.452zM23.894 15.462v3.376c0 0.692-0.568 1.25-1.27 1.25-0.704 0-1.272-0.558-1.272-1.25v-3.31l-2.442 0.716-1.64-0.75v3.286c0.026 2.886 2.418 5.22 5.364 5.22 2.964 0 5.366-2.358 5.366-5.27 0-0.036 0-3.268 0-3.268h-4.106z"></path>
</symbol>
<symbol id="icon-tumblr" viewBox="0 0 32 32">
<path class="path1" d="M17.050 2v7.078h6.644v4.394h-6.644v7.18c0 1.624 0.086 2.666 0.26 3.128 0.17 0.458 0.492 0.826 0.958 1.102 0.62 0.372 1.326 0.558 2.124 0.558 1.416 0 2.826-0.46 4.23-1.382v4.416c-1.198 0.562-2.282 0.958-3.25 1.186-0.968 0.226-2.016 0.34-3.144 0.34-1.28 0-2.412-0.162-3.396-0.484s-1.822-0.786-2.516-1.382c-0.696-0.598-1.176-1.234-1.444-1.908s-0.402-1.65-0.402-2.93v-9.824h-3.094v-3.962c1.1-0.358 2.042-0.87 2.826-1.538 0.786-0.666 1.414-1.466 1.888-2.404 0.474-0.934 0.8-2.122 0.98-3.568h3.98z"></path>
</symbol>
<symbol id="icon-reply" viewBox="0 0 32 32">
<path class="path1" d="M30 19l-10-10v7h-10v-11l-6 6v11h16v7z"></path>
<symbol id="icon-404" viewBox="0 0 32 32">
<path class="path1" d="M8.874 9.486l-1.748-0.972-5.826 10.486h7.7v4h2v-6h-6.3l4.174-7.514zM25.7 17l4.176-7.514-1.75-0.972-5.826 10.486h7.7v4h2v-6h-6.3zM17 11c-2.762 0-5 2.238-5 5s2.238 5 5 5 5-2.238 5-5-2.238-5-5-5zM17 19c-1.654 0-3-1.346-3-3s1.346-3 3-3 3 1.346 3 3-1.346 3-3 3z"></path>
</symbol>
<symbol id="icon-folder-open" viewBox="0 0 29 28">
<path class="path1" d="M29.359 14.875q0 0.484-0.484 1.031l-5.25 6.188q-0.672 0.797-1.883 1.352t-2.242 0.555h-17q-0.531 0-0.945-0.203t-0.414-0.672q0-0.484 0.484-1.031l5.25-6.188q0.672-0.797 1.883-1.352t2.242-0.555h17q0.531 0 0.945 0.203t0.414 0.672zM24 9.5v2.5h-13q-1.469 0-3.078 0.742t-2.562 1.867l-5.344 6.281q0-0.063-0.008-0.195t-0.008-0.195v-15q0-1.437 1.031-2.469t2.469-1.031h5q1.437 0 2.469 1.031t1.031 2.469v0.5h8.5q1.437 0 2.469 1.031t1.031 2.469z"></path>
</symbol>
<symbol id="icon-tag" viewBox="0 0 24 28">
<path class="path1" d="M7 7q0-0.828-0.586-1.414t-1.414-0.586-1.414 0.586-0.586 1.414 0.586 1.414 1.414 0.586 1.414-0.586 0.586-1.414zM23.672 16q0 0.828-0.578 1.406l-7.672 7.688q-0.609 0.578-1.422 0.578-0.828 0-1.406-0.578l-11.172-11.188q-0.594-0.578-1.008-1.578t-0.414-1.828v-6.5q0-0.812 0.594-1.406t1.406-0.594h6.5q0.828 0 1.828 0.414t1.594 1.008l11.172 11.156q0.578 0.609 0.578 1.422z"></path>
</symbol>
</defs>
</svg>